<mxfile host="app.diagrams.net" agent="Mozilla/5.0 (Windows NT 10.0; Win64; x64) AppleWebKit/537.36 (KHTML, like Gecko) Chrome/131.0.0.0 Safari/537.36" version="24.9.3">
  <diagram name="Page-1" id="_Q6k9-e8jTG_hFMja8Xd">
    <mxGraphModel dx="794" dy="459" grid="1" gridSize="10" guides="1" tooltips="1" connect="1" arrows="1" fold="1" page="1" pageScale="1" pageWidth="827" pageHeight="1169" background="#7EA6E0" math="0" shadow="0">
      <root>
        <mxCell id="0" />
        <mxCell id="1" parent="0" />
        <mxCell id="jzVMWMqFPs0V1BayAisF-1" value="&lt;b style=&quot;&quot;&gt;&lt;font color=&quot;#ffffff&quot; face=&quot;Comic Sans MS&quot; style=&quot;font-size: 36px;&quot;&gt;UNDERSTANDING&lt;/font&gt;&lt;/b&gt;&lt;div&gt;&lt;b style=&quot;&quot;&gt;&lt;font color=&quot;#ffffff&quot; face=&quot;Comic Sans MS&quot; style=&quot;font-size: 48px;&quot;&gt;PHISHING&lt;/font&gt;&lt;/b&gt;&lt;/div&gt;" style="strokeWidth=1;shadow=0;dashed=0;align=center;html=1;shape=mxgraph.mockup.text.textBox;fontColor=#666666;align=left;fontSize=17;spacingLeft=4;spacingTop=-3;whiteSpace=wrap;strokeColor=#666666;mainText=;fillColor=#7EA6E0;" vertex="1" parent="1">
          <mxGeometry x="240" y="40" width="440" height="160" as="geometry" />
        </mxCell>
      </root>
    </mxGraphModel>
  </diagram>
</mxfile>
